# xmcd
#
# Track frame offsets:
#	150
#	12618
#	35130
#	53358
#	63233
#	76760
#	104015
#	114458
#	141130
#	157078
#	192753
#	227720
#	247675
#	261970
#	272065
#
# Disc length: 3836 seconds
#
# Revision: 1
# Processed by: cddbd v1.4PL0 Copyright (c) Steve Scherf et al.
# Submitted via: audiograbber 1.80
#
DISCID=c80efa0f
DTITLE=James Brown - Let's Have a Funky Good Time
DYEAR=1900
DGENRE=
TTITLE0=Give it up or Turn it a Loose
TTITLE1=It's too funky in here
TTITLE2=doing it to death
TTITLE3=try me 
TTITLE4=Get on the good foot
TTITLE5=Prisoner of Love
TTITLE6=get up off that thing
TTITLE7=Georgia on my Mind
TTITLE8=I got the feeling
TTITLE9=It's a Man 's World
TTITLE10=Call Me super Bad
TTITLE11=Cold Sweat
TTITLE12=I can't  stand Myself
TTITLE13=Papa's Got a Brand New Bag
TTITLE14=I got you
EXTD=
EXTT0=
EXTT1=
EXTT2=
EXTT3=
EXTT4=
EXTT5=
EXTT6=
EXTT7=
EXTT8=
EXTT9=
EXTT10=
EXTT11=
EXTT12=
EXTT13=
EXTT14=
PLAYORDER=
